<?xml version="1.0" encoding="UTF-8"?>
<svg id="Capa_1" xmlns="http://www.w3.org/2000/svg" version="1.1" viewBox="0 0 866 331">
  <!-- Generator: Adobe Illustrator 30.0.0, SVG Export Plug-In . SVG Version: 2.1.1 Build 123)  -->
  <defs>
    <style>
      .st0 {
        fill: #8e732e;
      }

      .st0, .st1 {
        fill-rule: evenodd;
      }

      .st2, .st1 {
        fill: #812b2f;
      }

      .st3 {
        fill: #55585a;
      }
    </style>
  </defs>
  <g>
    <path class="st3" d="M68.6,232v-15.9h-13.6v15.9h-9.4v-37.4h9.4v13.5h13.5v-13.5h9.3v37.4h-9.3Z"/>
    <path class="st3" d="M114,229.2c-2,1.6-5.6,3.9-11.7,3.9s-8.4-.4-13.2-5.3c-5-5.3-5.3-12.4-5.3-14.6s.3-7.3,3.5-12.1c1.9-2.8,6.2-7.6,14.9-7.6s11.3,3.2,13.3,5.2c3.6,3.7,5.6,9.8,5.6,14.9s-2.5,11.9-7.1,15.6ZM109.4,204.8c-.5-.6-1.6-2-3.6-2.8-1.6-.6-3-.7-3.6-.7-2.1,0-3.5.7-4.2,1.1-3.7,2.1-5.1,6.7-5.1,10.7s1.6,7.8,3.1,9.5c1.6,1.7,3.8,2.7,6.3,2.7s4.1-.3,6.4-2.8c2.1-2.3,2.8-5.2,3-8.2.2-4.7-1.3-7.9-2.4-9.4Z"/>
    <path class="st3" d="M149,232l-13.5-23.1.3,23.1h-9v-37.4h9.1l13.6,23.4-.4-23.4h8.9v37.4h-9.1Z"/>
    <path class="st3" d="M165.4,232v-37.4h27.5v7.2h-18.2v6.8h17v7.1h-17v8.9h19.9v7.4h-29.2Z"/>
    <path class="st3" d="M228.7,225.7c-3.2,5.9-9.9,6.7-11.7,6.9-1.2.2-2.5.3-3.7.3-7.4,0-11.5-2.5-14-4.5-1-.8-1.5-1.4-3-3.1l7.1-4.4c.2.2.9,1,1.6,1.6,2.4,2,6,3.1,9.1,3.1s1.7,0,2.9-.4c.3,0,4-1.1,4-4s-5-3.5-8.3-4c-1.7-.2-3.5-.5-5.3-1-2.7-.7-5.2-1.7-7-3.9-.4-.4-1.1-1.4-1.6-2.8-.2-.5-.5-1.7-.5-3.3s0-1.5.2-2.6c.4-2.4,1.4-4.3,3.2-6,1.8-1.7,5.5-3.9,11.6-3.9s7.2.3,12.3,3.7c1.3.8,2,1.5,4.1,3.3l-6.9,4.9c-2.1-2-3.5-3.2-6.3-4.1-.5-.1-1.9-.5-3.5-.5-3.8,0-5.5,2.2-5.5,4s.5,1.7.8,2c1.3,1.4,3.3,1.3,6.8,1.9,2.1.3,4.2.7,6.2,1.2,1.3.3,6.1,1.2,8,5.8.3.7.7,2.1.7,4s-.1,3.3-1.5,5.8Z"/>
    <path class="st3" d="M251.5,202v30h-9.4v-30h-9.7v-7.4h28.7v7.4h-9.6Z"/>
    <path class="st3" d="M265.3,232v-37.4h9.3v37.4h-9.3Z"/>
    <path class="st3" d="M310.8,226.5c-1.2,1.4-4,3.8-8.5,4.9-2.1.5-3.8.6-6,.6h-14.6v-37.4h11.9c1.2,0,2.3,0,3.4,0,1.6.1,7.8.3,12.3,4,.7.5,1.8,1.5,3,3.4,1.3,2.1,2.8,5.4,2.8,10.9s-2.3,11.2-4.3,13.5ZM303.6,205.6c-.5-.6-1.6-1.9-3.6-2.5-1.7-.6-3.3-.5-5.1-.5h-3.7v22h2.8c2.7,0,5.9-.2,8.3-2,1.9-1.4,3.4-4.1,3.4-9.2s-.3-5.5-2.1-7.7Z"/>
    <path class="st3" d="M343.9,232l-1.8-6h-13.7l-1.8,6h-9.9l13.8-37.4h9.7l13.7,37.4h-9.9ZM335.1,203.5l-4.6,15.8h9.4l-4.9-15.8Z"/>
    <path class="st3" d="M386.5,226.5c-1.2,1.4-4,3.8-8.5,4.9-2.1.5-3.8.6-6,.6h-14.6v-37.4h11.9c1.2,0,2.3,0,3.4,0,1.6.1,7.8.3,12.3,4,.7.5,1.8,1.5,3,3.4,1.3,2.1,2.8,5.4,2.8,10.9s-2.3,11.2-4.3,13.5ZM379.4,205.6c-.5-.6-1.6-1.9-3.6-2.5-1.7-.6-3.3-.5-5.1-.5h-3.7v22h2.8c2.7,0,5.9-.2,8.3-2,1.9-1.4,3.4-4.1,3.4-9.2s-.3-5.5-2.1-7.7Z"/>
    <path class="st3" d="M431,214.3v17.7h-9.2v-17.4l-14-20h10.6l8,12.6,8-12.6h10.6l-14.1,19.7Z"/>
    <path class="st3" d="M486.6,232l-7.4-13.3h-5.8v13.3h-9.4v-37.4h16.8c1.1,0,2.1,0,3.2,0,1.7.1,7.6.5,10.5,5.8.5,1,1.5,3.2,1.5,6.2s-1.6,6.4-2.9,7.6c-.5.5-1.2,1-1.7,1.4-.7.4-1.5.7-3,1.3l8.6,14.9h-10.2ZM481.3,201.5h-7.9v10.2h7.7c.4,0,1.4,0,2.5-.4,3-1,3.1-3.9,3.1-4.8,0-4.9-3.7-5-5.4-5Z"/>
    <path class="st3" d="M501.4,232v-37.4h27.5v7.2h-18.2v6.8h17v7.1h-17v8.9h19.9v7.4h-29.2Z"/>
    <path class="st3" d="M564.8,225.7c-3.2,5.9-9.9,6.7-11.7,6.9-1.2.2-2.5.3-3.7.3-7.4,0-11.5-2.5-14-4.5-1-.8-1.5-1.4-3-3.1l7.1-4.4c.2.2.9,1,1.6,1.6,2.4,2,6,3.1,9.1,3.1s1.7,0,2.9-.4c.3,0,4-1.1,4-4s-5-3.5-8.3-4c-1.7-.2-3.5-.5-5.3-1-2.7-.7-5.2-1.7-7-3.9-.4-.4-1.1-1.4-1.6-2.8-.2-.5-.5-1.7-.5-3.3s0-1.5.2-2.6c.4-2.4,1.4-4.3,3.2-6,1.8-1.7,5.5-3.9,11.6-3.9s7.2.3,12.3,3.7c1.3.8,2,1.5,4.1,3.3l-6.9,4.9c-2.1-2-3.5-3.2-6.3-4.1-.5-.1-1.9-.5-3.5-.5-3.8,0-5.5,2.2-5.5,4s.5,1.7.8,2c1.3,1.4,3.3,1.3,6.8,1.9,2.1.3,4.2.7,6.2,1.2,1.3.3,6.1,1.2,8,5.8.3.7.7,2.1.7,4s-.1,3.3-1.5,5.8Z"/>
    <path class="st3" d="M602.2,223.5c-3.1,8.7-12.9,9.3-15,9.3s-7.9-.3-12.1-4.5c-3.6-3.6-3.7-8.2-3.7-12.9v-20.9h9.4v23.3c0,3.3.3,4.6,1.7,5.8,1.8,1.4,4.3,1.4,5,1.4,1.7,0,3.3-.2,4.6-1.4,1.7-1.5,1.8-3.8,1.8-5.9v-23.2h9.3v20.9c0,2.8-.1,5.5-1,8Z"/>
    <path class="st3" d="M610.2,232v-37.4h9.3v29.5h14.5v7.9h-23.8Z"/>
    <path class="st3" d="M655.4,202v30h-9.4v-30h-9.7v-7.4h28.7v7.4h-9.6Z"/>
    <path class="st3" d="M692.4,232l-1.8-6h-13.7l-1.8,6h-9.9l13.8-37.4h9.7l13.7,37.4h-9.9ZM683.6,203.5l-4.6,15.8h9.4l-4.9-15.8Z"/>
    <path class="st3" d="M735.1,226.4c-1.2,1.4-4,3.8-8.5,4.9-2.1.5-3.8.6-6,.6h-14.6v-37.4h11.9c1.2,0,2.3,0,3.4,0,1.6.1,7.8.3,12.3,4,.7.5,1.8,1.5,3,3.4,1.3,2.1,2.8,5.4,2.8,10.9s-2.3,11.2-4.3,13.5ZM728,205.4c-.5-.6-1.6-1.9-3.6-2.5-1.7-.6-3.3-.5-5.1-.5h-3.7v22h2.8c2.7,0,5.9-.2,8.3-2,1.9-1.4,3.4-4.1,3.4-9.2s-.3-5.5-2.1-7.7Z"/>
    <path class="st3" d="M773.4,229c-2,1.6-5.6,3.9-11.7,3.9s-8.4-.4-13.2-5.3c-5-5.3-5.3-12.4-5.3-14.6s.3-7.3,3.5-12.1c1.9-2.8,6.2-7.6,14.9-7.6s11.3,3.2,13.3,5.2c3.6,3.7,5.6,9.8,5.6,14.9s-2.5,11.9-7.1,15.6ZM768.8,204.6c-.5-.6-1.6-2-3.6-2.8-1.6-.6-3-.7-3.6-.7-2.1,0-3.5.7-4.2,1.1-3.7,2.1-5.1,6.7-5.1,10.7s1.6,7.8,3.1,9.5c1.6,1.7,3.8,2.7,6.3,2.7s4.1-.3,6.4-2.8c2.1-2.3,2.8-5.2,3-8.2.2-4.7-1.3-7.9-2.4-9.4Z"/>
    <path class="st3" d="M815.6,225.5c-3.2,5.9-9.9,6.7-11.7,6.9-1.2.2-2.5.3-3.7.3-7.4,0-11.5-2.5-14-4.5-1-.8-1.5-1.4-3-3.1l7.1-4.4c.2.2.9,1,1.6,1.6,2.4,2,6,3.1,9.1,3.1s1.7,0,2.9-.4c.3,0,4-1.1,4-4s-5-3.5-8.3-4c-1.7-.2-3.5-.5-5.3-1-2.7-.7-5.2-1.7-7-3.9-.4-.4-1.1-1.4-1.6-2.8-.2-.5-.5-1.7-.5-3.3s0-1.5.2-2.6c.4-2.4,1.4-4.3,3.2-6,1.8-1.7,5.5-3.9,11.6-3.9s7.2.3,12.3,3.7c1.3.8,2,1.5,4.1,3.3l-6.9,4.9c-2.1-2-3.5-3.2-6.3-4.1-.5-.1-1.9-.5-3.5-.5-3.8,0-5.5,2.2-5.5,4s.5,1.7.8,2c1.3,1.4,3.3,1.3,6.8,1.9,2.1.3,4.2.7,6.2,1.2,1.3.3,6.1,1.2,8,5.8.3.7.7,2.1.7,4s-.1,3.3-1.5,5.8Z"/>
  </g>
  <g>
    <path class="st1" d="M341.7,178.1h-38.1V47.9c.8,0,1.6-.2,2.3-.2,13.1,0,26.2,0,39.3,0,1.7,0,2.5.6,3.3,2,13.7,23.7,27.5,47.4,41.3,71.1.4.7.8,1.4,1.5,2.5V48h38.1v130.3h-2.5c-13.2,0-26.3,0-39.5,0-1.8,0-2.7-.6-3.5-2.1-13.5-23.6-27-47.2-40.5-70.8-.4-.7-.9-1.5-1.7-2.8v75.5Z"/>
    <path class="st1" d="M678.9,178.1c-1.1,0-1.8.1-2.5.1-13.8,0-27.6,0-41.4,0-1.6,0-2.5-.5-3.3-2-7.6-13.9-15.3-27.8-22.8-41.7-1.1-2-2.3-2.7-4.4-2.5-2.9.2-5.8,0-9,0v46h-41.2V48c.6,0,1.1-.2,1.7-.2,24.8,0,49.5,0,74.2.1,6.4,0,12.8.8,18.9,3,13.9,5,21.2,15.5,23.9,29.6,1.3,7,1.2,14-.9,20.9-3,9.9-9.2,17-18.6,21.4-2.1,1-4.2,1.8-6.5,2.8,10.6,17.5,21.1,34.8,31.9,52.5ZM595.5,105.2c11.7.2,15.5.2,25.1,0,4.1-.3,7.7-3,10-6.7,5.9-9.8.4-22-10.9-23.1-7.9-.7-15.8-.3-23.7-.4-.1,0-.2.2-.4.4v29.8Z"/>
    <path class="st1" d="M287,76.3h-61.7v19.4h57.7v28.1h-58v4.7c0,6.3,0,12.7,0,19,0,2,.6,2.5,2.6,2.5,20.7,0,41.4,0,62.1,0h3v27.9h-108.6V48h103v28.4Z"/>
    <path class="st1" d="M545.3,79.7c-10.2,0-20.2,0-30.2,0-2.3,0-2.9.6-2.9,2.9,0,30.8,0,61.5,0,92.3v3.2h-41v-98.3h-33.1v-31.9h107.2v31.8Z"/>
    <path class="st1" d="M732.4,83c-11.1,15.6-11.7,32.4-6,49.6,3.4,10.4,11.5,15.5,22.2,16.6,19.2,2.1,28.2-12,30.6-24.8,1.6-8.2,1.7-16.4.2-24.6-.1-.7.4-1.9.9-2.2,11.5-6,23-11.8,34.5-17.7.3.3.5.5.7.8,11.7,25.6,7.6,63.6-15.4,84.5-10.8,9.9-23.7,15.1-38.1,16.6-13.5,1.4-26.8.6-39.6-4.1-6.6-2.4-12.7-5.8-17.9-10.5-1.2-1.1-2.3-2.7-2.8-4.2-6-18-4.5-35.7,3.2-52.8,5.6-12.4,14.9-21.3,27.5-27.1Z"/>
    <path class="st1" d="M92.3,82.3c-10.8,15.2-10.7,31.6-5.6,48.4,2.7,8.8,8.6,15.1,17.9,17.6,12.6,3.3,25.6-3,31-14.8.8-1.8,1.5-3.7,2.3-5.7,11.7,5.6,23.3,11.2,35.1,16.9-3.6,7.1-7.7,13.5-13.3,18.9-10.7,10.3-23.7,16.1-38.3,18-13.5,1.8-26.9,1-39.8-4.1-1.4-.6-2.7-1.2-4.1-1.8-11.1-4.9-17-13.6-17.9-25.6-1.1-15,.8-29.6,7.8-43.2,5.3-10.3,13-18.3,23.3-23.6.5-.3,1.1-.5,1.6-.7Z"/>
    <path class="st0" d="M811.9,77.1c-10.8,5.5-21.3,10.9-31.9,16.3-.9-1.8-1.7-3.7-2.7-5.3-7.5-12-18.2-16.4-32.1-13.3-12,2.6-22.8,7.7-31.6,16.4-9.7,9.5-15.1,21.3-17.6,34.6-1.7,9.2-2,18.5-.5,28.5-1.1-1.7-1.9-3-2.7-4.2-.8-1.4-1.6-2.9-2.4-4.4-.7-1.4-1.4-2.9-2-4.3-4.7-10.7-6.6-22-5.5-33.6,1.6-17.9,7.1-34.2,20.4-47.1,8.5-8.2,18.9-13,30.4-15.1,17.1-3.2,33.9-1.6,50,5,7.4,3.1,13.5,8.2,18.9,14.1,2.9,3.2,5.4,6.8,8.1,10.2.5.6.8,1.3,1.4,2.2Z"/>
    <path class="st0" d="M139.6,93.8c-2.3-3.8-4.3-7.7-6.9-11.2-4.9-6.4-11.4-10.1-19.7-10.2-12.9-.2-24.1,4.6-34.1,12.4-13.2,10.3-19.8,24.4-22.9,40.5-1.6,8.6-1.7,17.2-1.2,26.2-4.2-6.3-6.8-12.8-8.7-19.7-4.5-17-2.1-33.5,4.5-49.6,3.1-7.6,7.5-14.5,13.3-20.3,9.2-9.2,20.4-14.3,33.3-16.2,14.3-2.1,28-.4,41.4,4.8,5.5,2.1,10.3,5.4,14.4,9.3,5.4,5.1,10.2,10.7,15.3,16.1,1.1,1.2,1.3,2.3-.5,3.2-9.3,4.8-18.5,9.6-27.8,14.4-.3.1-.6.2-.6.2Z"/>
    <g>
      <path class="st2" d="M332.5,270.8c-2.2,2.3-5.1,4.2-10.8,7.4,1.7,0,3.5-.1,5.2-.1h8.5v7.8h-28.1v-6.3c2.7-1.8,5.4-3.6,8-5.5,2.3-1.6,4.5-3.3,6.6-5.1,1.8-1.7,3.7-3.5,3.7-6.2,0-.4,0-1.1-.2-1.6-.3-.9-1.2-2.3-3.8-2.3s-4.3.8-4.3,5,0,1.5.3,2.4l-10-1.2c0-.6,0-1.3,0-1.9,0-1.2.2-5.1,3.2-7.9,3.1-2.9,7.6-3.4,11.5-3.4s3.3,0,5.7.7c5,1.4,7.7,5,7.7,10.1s-.3,4.8-3.4,8.2Z"/>
      <path class="st2" d="M364.1,282.9c-1.5,1.6-4.8,4.1-10.5,4.1s-3.5,0-6-1.2c-3.6-1.6-5.5-4.5-6.2-5.8-1-1.8-2.3-5.1-2.3-10.2s0-6.6,2.6-10.9c2-3.5,4.8-5.1,6.2-5.8,2.1-.9,4.3-1.3,6.7-1.2,1.5,0,5.3.1,8.6,2.8,2.6,2.1,5.7,6.4,5.7,14.2s-2.8,11.7-4.8,13.9ZM358.7,264.9c0-.3-.2-2.5-.9-4-.9-2-2.7-2.3-3.6-2.3-1.5,0-2.6,1-2.9,1.3-.3.4-.6.8-.8,1.3-1.1,2.3-1.2,6.7-1.2,9.3s0,5.4,1.2,7.4c1,1.9,2.8,2.2,3.6,2.2s2-.2,3-1.5c1.1-1.5,1.9-4.4,1.9-8.8s0-3.3-.2-4.9Z"/>
      <path class="st2" d="M396.8,270.8c-2.2,2.3-5.1,4.2-10.8,7.4,1.7,0,3.5-.1,5.2-.1h8.5v7.8h-28.1v-6.3c2.7-1.8,5.4-3.6,8-5.5,2.3-1.6,4.5-3.3,6.6-5.1,1.8-1.7,3.7-3.5,3.7-6.2,0-.4,0-1.1-.2-1.6-.3-.9-1.2-2.3-3.8-2.3s-4.3.8-4.3,5,0,1.5.3,2.4l-10-1.2c0-.6,0-1.3,0-1.9,0-1.2.2-5.1,3.2-7.9,3.1-2.9,7.6-3.4,11.5-3.4s3.3,0,5.7.7c5,1.4,7.7,5,7.7,10.1s-.3,4.8-3.4,8.2Z"/>
      <path class="st2" d="M427.8,279v7h-9.7v-7h-15.8v-6.7l15.4-19.9h10.1v20h4.3v6.6h-4.3ZM416.2,264.6l-5.8,7.7h7.7v-7.7c0-1.1.1-2.1.2-3.2-.7,1.1-1.4,2.1-2.2,3.2Z"/>
      <path class="st2" d="M435.6,275v-8.3h15.5v8.3h-15.5Z"/>
      <path class="st2" d="M479.3,270.9c-2.2,2.3-5.1,4.2-10.8,7.4,1.7,0,3.5-.1,5.2-.1h8.5v7.8h-28.1v-6.3c2.7-1.8,5.4-3.6,8-5.5,2.3-1.6,4.5-3.3,6.6-5.1,1.8-1.7,3.7-3.5,3.7-6.2,0-.4,0-1.1-.2-1.6-.3-.9-1.2-2.3-3.8-2.3s-4.3.8-4.3,5,0,1.5.3,2.4l-10-1.2c0-.6,0-1.3,0-1.9,0-1.2.2-5.1,3.2-7.9,3.1-2.9,7.6-3.4,11.5-3.4s3.3,0,5.7.7c5,1.4,7.7,5,7.7,10.1s-.3,4.8-3.4,8.2Z"/>
      <path class="st2" d="M510.8,282.8c-1.5,1.6-4.8,4.1-10.5,4.1s-3.5,0-6-1.2c-3.6-1.6-5.5-4.5-6.2-5.8-1-1.8-2.3-5.1-2.3-10.2s0-6.6,2.6-10.9c2-3.5,4.8-5.1,6.2-5.8,2.1-.9,4.3-1.3,6.7-1.2,1.5,0,5.3.1,8.6,2.8,2.6,2.1,5.7,6.4,5.7,14.2s-2.8,11.7-4.8,13.9ZM505.3,264.9c0-.3-.2-2.5-.9-4-.9-2-2.7-2.3-3.6-2.3-1.5,0-2.6,1-2.9,1.3-.3.4-.6.8-.8,1.3-1.1,2.3-1.2,6.7-1.2,9.3s0,5.4,1.2,7.4c1,1.9,2.8,2.2,3.6,2.2s2-.2,3-1.5c1.1-1.5,1.9-4.4,1.9-8.8s0-3.3-.2-4.9Z"/>
      <path class="st2" d="M543.2,271.1c-2.2,2.3-5.1,4.2-10.8,7.4,1.7,0,3.5-.1,5.2-.1h8.5v7.8h-28.1v-6.3c2.7-1.8,5.4-3.6,8-5.5,2.3-1.6,4.5-3.3,6.6-5.1,1.8-1.7,3.7-3.5,3.7-6.2,0-.4,0-1.1-.2-1.6-.3-.9-1.2-2.3-3.8-2.3s-4.3.8-4.3,5,0,1.5.3,2.4l-10-1.2c0-.6,0-1.3,0-1.9,0-1.2.2-5.1,3.2-7.9,3.1-2.9,7.6-3.4,11.5-3.4s3.3,0,5.7.7c5,1.4,7.7,5,7.7,10.1s-.3,4.8-3.4,8.2Z"/>
      <path class="st2" d="M575.7,261.4c-1.5,1.7-3.5,4.1-5.7,8.7-3.7,7.5-4.3,12.6-4.9,16.2h-10.6c.5-2.1,1-4.2,1.8-6.3,2.3-6.8,6.3-13.3,7.5-15.1,1-1.6,2.1-3.1,3.3-4.6h-16.3v-7.6h27.2v6.4c-.7.7-1.5,1.5-2.2,2.3Z"/>
    </g>
  </g>
</svg>